# Blender v2.58 (sub 0) OBJ File: 'all.blend'
# www.blender.org
o Cube_Cube.001
v 1.000000 1.000000 -1.000000
v 1.000000 -1.000000 -1.000000
v -1.000000 -1.000000 -1.000000
v -1.000000 1.000000 -1.000000
v 1.000000 0.999999 1.000000
v 0.999999 -1.000001 1.000000
v -1.000000 -1.000000 1.000000
v -1.000000 1.000000 1.000000
vt 0.000000 0.000000
vt 1.000000 0.000000
vt 1.000000 1.000000
vt 0.000000 1.000000
vn 0.000000 1.000000 0.000000
vn -1.000000 0.000000 -0.000000
vn -0.000000 -1.000000 -0.000000
vn 1.000000 -0.000000 -0.000000
vn 1.000000 -0.000001 0.000000
vn -0.000000 -0.000000 1.000000
vn 0.000000 0.000000 -1.000000
usemtl None_weird.png
s off
f 5/1/1 1/2/1 4/3/1
f 5/1/1 4/3/1 8/4/1
f 3/1/2 7/2/2 8/3/2
f 3/1/2 8/3/2 4/4/2
f 2/1/3 6/2/3 3/4/3
f 6/2/3 7/3/3 3/4/3
f 1/1/4 5/2/4 2/4/4
f 5/2/5 6/3/5 2/4/5
f 5/1/6 8/2/6 6/4/6
f 8/2/6 7/3/6 6/4/6
f 1/1/7 2/2/7 3/3/7
f 1/1/7 3/3/7 4/4/7
